<?xml version="1.0" encoding="UTF-8"?>
<svg version="1.1" xmlns="http://www.w3.org/2000/svg" width="96" height="96">
<path d="M0 0 C7.44214287 5.27281531 13.56836711 12.06758076 16.62890625 20.79296875 C18.98463385 34.80334868 16.29341038 45.98324401 8.3125 57.6875 C1.10372376 67.06564629 -7.93928245 73.91716089 -18 80 C-18.33 80 -18.66 80 -19 80 C-19 75.71 -19 71.42 -19 67 C-20.8975 67.0825 -22.795 67.165 -24.75 67.25 C-36.61871404 67.22417037 -45.43035005 63.25937901 -53.90234375 55.1875 C-61.29282513 47.43765061 -63.63620494 39.49800395 -63.46630859 28.89794922 C-62.94557876 17.62081038 -58.14486794 10.57850295 -50 3 C-36.4290003 -7.82572114 -14.80372927 -8.739305 0 0 Z M-50 16 C-54.4164011 22.39247275 -55.11858166 29.41740222 -54 37 C-51.40030355 45.41007791 -46.23821626 50.8307381 -38.82421875 55.31640625 C-30.86271791 59.1566596 -19.45724903 59.66728623 -11 57 C-11 58.65 -11 60.3 -11 62 C-2.40304159 56.58117249 5.26039066 47.93108385 8 38 C9.01329342 29.26034423 8.22697998 22.2236609 3 15 C-2.90710772 8.18914409 -9.88768779 4.50395761 -18.84375 3.62109375 C-31.70068025 3.04618417 -41.34848719 6.11507395 -50 16 Z " fill="#000000" transform="translate(71,13)"/>
</svg>
