<?xml version="1.0" encoding="UTF-8"?>
<svg version="1.1" xmlns="http://www.w3.org/2000/svg" width="96" height="96">
<path d="M0 0 C2.96386578 -0.68396903 5.29705432 -1.64852716 8 -3 C17.13456299 -3.79927426 25.46888534 -3.85596953 33 2 C39.60181897 8.83612153 41.45002477 15.26056126 41.43383789 24.69750977 C41.13402947 35.67348378 36.06743136 43.91680422 29 52 C28.34257813 52.80050781 27.68515625 53.60101563 27.0078125 54.42578125 C20.85071543 61.67672158 11.35332034 71.96036576 1.5625 73.5625 C-4.87787447 73.45787298 -9.28815051 68.94689711 -14 65 C-15.40185547 63.84371094 -15.40185547 63.84371094 -16.83203125 62.6640625 C-27.47231127 53.467289 -38.19805293 41.59422538 -39.4375 26.96875 C-39.78065691 19.62621384 -39.4602814 13.11339268 -35 7 C-34.46375 6.113125 -33.9275 5.22625 -33.375 4.3125 C-24.14854547 -4.6711531 -11.2377241 -5.81041417 0 0 Z M-27.3125 12.625 C-30.98646208 17.79576144 -30.72223913 22.81041068 -30 29 C-26.03398274 41.49945605 -16.15259904 51.86786809 -6.125 59.9375 C-5.5899585 60.38109863 -5.05491699 60.82469727 -4.50366211 61.28173828 C-2.7935906 62.64885028 -2.7935906 62.64885028 0 64 C4.54841777 63.20741857 7.88291524 59.94433769 11.3125 57 C11.88427979 56.50943115 12.45605957 56.0188623 13.04516602 55.51342773 C21.86816554 47.76728534 30.62091825 37.74125665 32.5078125 25.78125 C32.73227501 19.73572628 32.25472825 15.59970622 28 11 C22.77472672 6.39678306 19.62174395 5.61490419 12.75390625 5.6328125 C9.82195197 6.02373974 8.79724893 6.50839701 6.6875 8.5 C4 11 4 11 0.9375 11.5625 C-2.65827891 10.87394659 -4.32912125 9.44830552 -7 7 C-14.6942843 3.15285785 -22.08609384 6.69232274 -27.3125 12.625 Z " fill="#000000" transform="translate(47,15)"/>
</svg>
