<?xml version="1.0" encoding="UTF-8"?>
<svg version="1.1" xmlns="http://www.w3.org/2000/svg" width="96" height="96">
<path d="M0 0 C4.4310056 1.14385803 6.73323107 3.74819378 9.80859375 7.0234375 C10.39318359 7.60996094 10.97777344 8.19648438 11.58007812 8.80078125 C16.58686592 13.96421247 16.58686592 13.96421247 16.99609375 17.7734375 C15.05859375 20.0234375 15.05859375 20.0234375 12.99609375 21.7734375 C9.57050291 20.56985153 7.46350766 19.41451104 4.99609375 16.7734375 C4.94666476 21.70302872 4.91036057 26.63247575 4.88623047 31.56225586 C4.87617138 33.23936475 4.86252253 34.91645611 4.84521484 36.59350586 C4.82096223 39.00378752 4.80960985 41.41383736 4.80078125 43.82421875 C4.79045868 44.57431717 4.78013611 45.32441559 4.76950073 46.09724426 C4.76868575 49.87644529 4.84552308 51.54758149 6.99609375 54.7734375 C10.57651019 55.96690965 13.79503315 55.85256489 17.515625 55.80859375 C19.02800158 55.81230738 20.54037405 55.81823689 22.05273438 55.82617188 C24.43020048 55.83671877 26.80466919 55.83600088 29.18188477 55.79760742 C31.48227324 55.76435168 33.77774379 55.78212196 36.078125 55.80859375 C36.78145462 55.78604019 37.48478424 55.76348663 38.20942688 55.74024963 C41.46486776 55.81884214 43.5164345 56.28855018 45.82162476 58.61886597 C47.32842314 60.61807817 48.7044599 62.63005295 49.99609375 64.7734375 C43.57347185 64.92604261 37.15132029 65.03084188 30.72729492 65.10302734 C28.54384897 65.13313045 26.36052325 65.1740232 24.17749023 65.22607422 C21.0320871 65.29917313 17.88828745 65.33295917 14.7421875 65.359375 C13.77212265 65.39034271 12.8020578 65.42131042 11.80259705 65.45321655 C7.04494393 65.45555906 3.78004921 65.14594745 -0.05053711 62.17431641 C-5.192138 56.99810965 -5.30445099 50.60597466 -5.41796875 43.65234375 C-5.4373349 42.90758286 -5.45670105 42.16282196 -5.47665405 41.39549255 C-5.53590781 39.04242001 -5.58261539 36.68929707 -5.62890625 34.3359375 C-5.6671361 32.72979767 -5.70619067 31.12367725 -5.74609375 29.51757812 C-5.84156375 25.60302425 -5.92579168 21.68837459 -6.00390625 17.7734375 C-7.65390625 19.0934375 -9.30390625 20.4134375 -11.00390625 21.7734375 C-13.47890625 20.7834375 -13.47890625 20.7834375 -16.00390625 19.7734375 C-16.44685838 16.79933033 -16.5697069 14.63764998 -14.88183594 12.05957031 C-13.28722962 10.24850159 -11.61877703 8.57022638 -9.87890625 6.8984375 C-9.30914062 6.30546875 -8.739375 5.7125 -8.15234375 5.1015625 C-5.47811576 2.46380125 -3.681125 0.94780592 0 0 Z " fill="#000000" transform="translate(16.00390625,13.2265625)"/>
<path d="M0 0 C6.4226219 -0.15260511 12.84477346 -0.25740438 19.26879883 -0.32958984 C21.45224478 -0.35969295 23.6355705 -0.4005857 25.81860352 -0.45263672 C28.96400665 -0.52573563 32.1078063 -0.55952167 35.25390625 -0.5859375 C36.2239711 -0.61690521 37.19403595 -0.64787292 38.1934967 -0.67977905 C42.95114982 -0.68212156 46.21604454 -0.37250995 50.04663086 2.59912109 C55.18823175 7.77532785 55.30054474 14.16746284 55.4140625 21.12109375 C55.43342865 21.86585464 55.4527948 22.61061554 55.4727478 23.37794495 C55.53200156 25.73101749 55.57870914 28.08414043 55.625 30.4375 C55.66322985 32.04363983 55.70228442 33.64976025 55.7421875 35.25585938 C55.8376575 39.17041325 55.92188543 43.08506291 56 47 C57.65 45.68 59.3 44.36 61 43 C62.65 43.66 64.3 44.32 66 45 C66.44295213 47.97410717 66.56580065 50.13578752 64.87792969 52.71386719 C63.28332337 54.52493591 61.61487078 56.20321112 59.875 57.875 C59.30523437 58.46796875 58.73546875 59.0609375 58.1484375 59.671875 C55.47420951 62.30963625 53.67721875 63.82563158 49.99609375 64.7734375 C45.56508815 63.62957947 43.26286268 61.02524372 40.1875 57.75 C39.60291016 57.16347656 39.01832031 56.57695313 38.41601562 55.97265625 C33.40922783 50.80922503 33.40922783 50.80922503 33 47 C34.9375 44.75 34.9375 44.75 37 43 C40.42559084 44.20358597 42.53258609 45.35892646 45 48 C45.04942899 43.07040878 45.08573318 38.14096175 45.10986328 33.21118164 C45.11992237 31.53407275 45.13357122 29.85698139 45.15087891 28.17993164 C45.17513152 25.76964998 45.1864839 23.35960014 45.1953125 20.94921875 C45.21079636 19.82407112 45.21079636 19.82407112 45.22659302 18.67619324 C45.227408 14.89699221 45.15057067 13.22585601 43 10 C39.41958356 8.80652785 36.2010606 8.92087261 32.48046875 8.96484375 C30.96809217 8.96113012 29.4557197 8.95520061 27.94335938 8.94726562 C25.56589327 8.93671873 23.19142456 8.93743662 20.81420898 8.97583008 C18.51382051 9.00908582 16.21834996 8.99131554 13.91796875 8.96484375 C13.21463913 8.98739731 12.51130951 9.00995087 11.78666687 9.03318787 C8.53122599 8.95459536 6.47965925 8.48488732 4.17446899 6.15457153 C2.66767061 4.15535933 1.29163385 2.14338455 0 0 Z " fill="#000000" transform="translate(30,18)"/>
</svg>
